<svg viewBox="0 0 12 14" xmlns="http://www.w3.org/2000/svg">
<path d="M1.92 0.24C2.03331 0.0889165 2.21115 0 2.4 0H9.6C9.78885 0 9.96669 0.0889165 10.08 0.24L11.88 2.64C11.9579 2.74386 12 2.87018 12 3V11.4C12 11.8774 11.8104 12.3352 11.4728 12.6728C11.1352 13.0104 10.6774 13.2 10.2 13.2H1.8C1.32261 13.2 0.864773 13.0104 0.527208 12.6728C0.189642 12.3352 0 11.8774 0 11.4V3C0 2.87018 0.0421067 2.74386 0.12 2.64L1.92 0.24ZM2.7 1.2L1.2 3.2V11.4C1.2 11.5591 1.26321 11.7117 1.37574 11.8243C1.48826 11.9368 1.64087 12 1.8 12H10.2C10.3591 12 10.5117 11.9368 10.6243 11.8243C10.7368 11.7117 10.8 11.5591 10.8 11.4V3.2L9.3 1.2H2.7Z" />
<path  d="M0 3C0 2.66863 0.268629 2.4 0.6 2.4H11.4C11.7314 2.4 12 2.66863 12 3C12 3.33137 11.7314 3.6 11.4 3.6H0.6C0.268629 3.6 0 3.33137 0 3Z" />
<path  d="M3.6 4.8C3.93137 4.8 4.2 5.06863 4.2 5.4C4.2 5.87739 4.38964 6.33523 4.72721 6.67279C5.06477 7.01036 5.52261 7.2 6 7.2C6.47739 7.2 6.93523 7.01036 7.27279 6.67279C7.61036 6.33523 7.8 5.87739 7.8 5.4C7.8 5.06863 8.06863 4.8 8.4 4.8C8.73137 4.8 9 5.06863 9 5.4C9 6.19565 8.68393 6.95871 8.12132 7.52132C7.55871 8.08393 6.79565 8.4 6 8.4C5.20435 8.4 4.44129 8.08393 3.87868 7.52132C3.31607 6.95871 3 6.19565 3 5.4C3 5.06863 3.26863 4.8 3.6 4.8Z" />
</svg>
