<svg width="14" height="14" viewBox="0 0 14 14" fill="none" xmlns="http://www.w3.org/2000/svg">
<path fill-rule="evenodd" clip-rule="evenodd" d="M6.87502 0C7.1129 0 7.33017 0.135045 7.43546 0.34836L9.22143 3.96654L13.2154 4.55032C13.4508 4.58472 13.6462 4.74973 13.7195 4.97598C13.7929 5.20223 13.7315 5.45052 13.5611 5.61647L10.6716 8.43085L11.3535 12.4068C11.3937 12.6413 11.2973 12.8783 11.1049 13.0182C10.9124 13.158 10.6572 13.1764 10.4466 13.0657L6.87502 11.1874L3.30342 13.0657C3.09285 13.1764 2.83767 13.158 2.64518 13.0182C2.4527 12.8783 2.35629 12.6413 2.39651 12.4068L3.07844 8.43085L0.188935 5.61647C0.0185489 5.45052 -0.0428716 5.20223 0.0304894 4.97598C0.10385 4.74973 0.299275 4.58472 0.534626 4.55032L4.5286 3.96654L6.31458 0.34836C6.41987 0.135045 6.63713 0 6.87502 0ZM6.87502 2.03703L5.50421 4.81414C5.41325 4.99842 5.23751 5.12621 5.03416 5.15593L1.96778 5.60413L4.1861 7.76478C4.33352 7.90836 4.40081 8.11532 4.36602 8.31815L3.84263 11.3698L6.58411 9.92808C6.76623 9.83231 6.98381 9.83231 7.16592 9.92808L9.9074 11.3698L9.38401 8.31815C9.34922 8.11532 9.41651 7.90836 9.56393 7.76478L11.7823 5.60413L8.71587 5.15593C8.51253 5.12621 8.33679 4.99842 8.24583 4.81414L6.87502 2.03703Z" fill="#F2C94C"/>
<path d="M3.375 7.875L0.875 4.875H6.875H12.875L10.375 7.875V11.375L9.875 12.375L6.875 10.875L5.875 11.375L3.375 12.375V11.375V7.875Z" fill="#F2C94C"/>
</svg>
