<svg width="14" height="14" viewBox="0 0 14 14" fill="none" xmlns="http://www.w3.org/2000/svg">
<path fill-rule="evenodd" clip-rule="evenodd" d="M6.87502 0C7.1129 0 7.33017 0.135045 7.43546 0.34836L9.22143 3.96654L13.2154 4.55032C13.4508 4.58472 13.6462 4.74973 13.7195 4.97598C13.7929 5.20223 13.7315 5.45052 13.5611 5.61647L10.6716 8.43085L11.3535 12.4068C11.3937 12.6413 11.2973 12.8783 11.1049 13.0182C10.9124 13.158 10.6572 13.1764 10.4466 13.0657L6.87502 11.1874L3.30343 13.0657C3.09285 13.1764 2.83767 13.158 2.64518 13.0182C2.4527 12.8783 2.35629 12.6413 2.39651 12.4068L3.07844 8.43085L0.188935 5.61647C0.0185489 5.45052 -0.0428716 5.20223 0.0304894 4.97598C0.10385 4.74973 0.299276 4.58472 0.534626 4.55032L4.5286 3.96654L6.31458 0.34836C6.41987 0.135045 6.63713 0 6.87502 0ZM6.87502 2.03703L5.50421 4.81414C5.41325 4.99842 5.23751 5.12621 5.03416 5.15593L1.96778 5.60413L4.1861 7.76478C4.33352 7.90836 4.40081 8.11532 4.36602 8.31815L3.84263 11.3698L6.58411 9.92808C6.76622 9.83231 6.98381 9.83231 7.16593 9.92808L9.9074 11.3698L9.38401 8.31815C9.34922 8.11532 9.41651 7.90836 9.56393 7.76478L11.7823 5.60413L8.71587 5.15593C8.51253 5.12621 8.33679 4.99842 8.24583 4.81414L6.87502 2.03703Z" fill="#F2C94C"/>
<path d="M6.77554 4.10576C6.77554 4.42032 6.71716 4.81783 6.89646 5.09574C7.01825 5.28451 7.07919 5.29 7.15957 5.07979C7.32331 4.65153 7.37976 4.12418 7.2167 3.68718C7.14541 3.49613 6.96689 3.24841 6.96689 3.04138C6.96689 2.95161 6.9714 2.7747 6.93765 2.69455C6.92445 2.66319 6.91905 2.64551 6.91905 2.61084C6.91905 2.50198 6.81352 2.80168 6.75162 2.89122C6.37853 3.43092 5.97019 3.97038 5.67527 4.56022C5.50644 4.89788 5.40615 5.20803 5.0175 5.33758C4.60252 5.47591 4.19638 5.30125 3.7724 5.32695C3.32464 5.35409 2.91613 5.58873 2.47015 5.58873C2.43832 5.58873 2.34529 5.61309 2.35056 5.66049C2.35853 5.73225 2.56185 5.82566 2.61233 5.86247C2.718 5.93951 2.83027 6.00181 2.94321 6.06711C3.19144 6.21061 3.45023 6.32848 3.7033 6.46309C3.827 6.52889 3.94889 6.58909 4.04879 6.68899C4.10797 6.74817 4.15185 6.81607 4.21622 6.86971C4.68756 7.2625 4.64676 7.99127 4.64676 8.54137C4.64676 8.59603 4.64673 9.04263 4.61753 9.02241C4.42926 8.89207 4.34929 8.54188 4.25875 8.34471C4.1137 8.02883 3.93027 7.72908 3.78037 7.41453C3.68325 7.21074 3.55303 7.03125 3.45082 6.83251C3.43083 6.79364 3.40003 6.75314 3.38438 6.71291C3.3605 6.65151 3.59167 6.76266 3.59699 6.76607C3.82399 6.91135 3.9833 7.157 4.12586 7.37998C4.34852 7.72824 4.51445 8.11741 4.67732 8.49619C4.91711 9.05383 5.1738 9.71456 4.77699 10.2542C4.62706 10.4581 4.50845 10.6997 4.34911 10.8934C4.26767 10.9924 4.15374 11.0973 4.09131 11.2096C4.08577 11.2196 4.05589 11.2925 4.05012 11.2522C4.0293 11.1064 4.04879 10.944 4.04879 10.7977C4.04879 10.3184 4.10264 9.83484 4.21622 9.3679C4.23672 9.28363 4.23487 9.06213 4.32519 9.02108C4.50305 8.94023 4.66439 9.17259 4.70656 9.31209C4.77469 9.53744 4.78908 9.75759 4.79027 9.99245C4.79135 10.2026 4.82524 10.4477 4.77832 10.6542C4.75927 10.738 5.30963 10.7506 5.38426 10.7539C5.71106 10.7681 5.84924 10.6188 6.0686 10.3964C6.27096 10.1912 6.46742 9.98014 6.66923 9.77452C6.78866 9.65283 6.85889 9.58182 7.02004 9.53002C7.04221 9.52289 7.13084 9.51141 7.11173 9.51141C6.86788 9.51141 6.6239 9.57064 6.38486 9.6124C5.89025 9.69882 5.34937 9.77652 4.87931 9.96454C4.77937 10.0045 5.09457 9.96587 5.20221 9.96587C5.40641 9.96587 5.6106 9.96587 5.8148 9.96587C6.10729 9.96587 6.40268 9.97768 6.69315 9.93664C7.01161 9.89164 7.32162 9.83021 7.64459 9.82369C8.0154 9.8162 8.45045 9.75885 8.79535 9.91803C9.28745 10.1452 9.6022 10.6287 9.8903 11.0608C9.978 11.1924 9.649 10.8564 9.52753 10.7552C9.35688 10.613 9.18891 10.4725 9.00796 10.3433C8.67599 10.1061 8.31189 10.0041 7.94224 9.85159C7.85361 9.81501 7.58724 9.72668 7.68312 9.72668C7.94804 9.72668 8.20894 9.81033 8.46846 9.85425C8.73501 9.89936 9.00794 9.91865 9.26974 9.98846C9.28717 9.99311 9.46063 10.0506 9.47305 10.027C9.50741 9.96171 9.47937 9.82641 9.49032 9.75193C9.51289 9.59847 9.5336 9.37475 9.49829 9.22173C9.45375 9.02872 9.36348 8.85027 9.32953 8.65034C9.30724 8.51904 9.28214 8.39094 9.28701 8.257C9.29793 7.95657 9.70815 7.71373 9.91421 7.54476C10.1884 7.31996 10.4862 7.10843 10.7407 6.86174C11.0336 6.57789 11.3706 6.32609 11.5234 5.93555C11.5855 5.77684 11.6085 5.74903 11.4238 5.71895C10.9601 5.64347 10.5506 5.4055 10.0909 5.31632C9.54492 5.21037 9.00973 5.09024 8.48706 4.88977C8.30513 4.81999 8.14638 4.69086 7.98476 4.58414C7.86627 4.50589 7.7841 4.32935 7.63927 4.43797C7.49027 4.54972 7.36322 4.68845 7.21405 4.79941C6.99536 4.96207 6.7246 5.04252 6.46725 5.12098C5.97655 5.27059 5.50505 5.41399 5.03478 5.62062C4.97778 5.64566 4.08862 6.06439 4.0169 5.96877C3.99864 5.94442 4.81097 5.68715 4.89127 5.65517C5.3341 5.47879 5.63768 5.10352 5.9995 4.81004C6.14276 4.69384 6.32853 4.46503 6.51774 4.42202C6.56065 4.41227 6.64314 4.39604 6.60013 4.46056C6.47649 4.64602 6.29687 4.79851 6.12973 4.94292C5.8395 5.19368 5.53696 5.38391 5.20885 5.5781C5.08949 5.64874 4.84359 5.79027 4.79027 5.93688C4.75128 6.04413 4.6872 6.15516 4.67201 6.26909C4.64957 6.43741 4.8006 6.57959 4.89791 6.70228C5.33322 7.25115 5.40192 8.03791 5.55568 8.69817C5.58899 8.84121 5.57515 8.9825 5.62212 9.1234C5.62458 9.13078 5.6545 9.2044 5.66331 9.19382C5.6828 9.17044 5.6751 9.09466 5.67527 9.0729C5.67661 8.90549 5.67527 8.73802 5.67527 8.57061C5.67527 7.83767 5.72311 7.11126 5.72311 6.37938C5.72311 6.2668 5.73966 6.17632 5.6766 6.08172C5.64901 6.04034 5.62743 5.89114 5.62743 5.94087C5.62743 6.06919 5.67409 6.19672 5.70052 6.32091C5.76481 6.62308 5.79486 6.92041 5.79486 7.2285C5.79486 7.49726 5.77172 7.78129 5.81878 8.04705C5.8568 8.26176 5.88814 8.50203 5.98622 8.69817C6.01472 8.75518 6.12257 8.91148 6.17757 8.93736C6.22376 8.9591 6.19937 8.83692 6.20016 8.78588C6.2051 8.46433 6.20108 8.14271 6.2068 7.82115C6.21489 7.36638 6.28099 6.9184 6.29583 6.46575C6.30365 6.22715 6.2982 5.99318 6.31975 5.75616C6.32298 5.72065 6.30147 5.62208 6.32639 5.59404C6.33889 5.57998 6.39348 5.78708 6.39549 5.7947C6.55636 6.4024 6.61245 7.03286 6.71707 7.65106C6.77465 7.9913 6.91905 8.34671 6.91905 8.69286C6.91905 8.76037 6.94297 8.80165 6.94297 8.86561C6.94297 9.18984 6.9344 8.21685 6.94828 7.89291C6.97393 7.29448 7.01472 6.69418 7.01472 6.09501C7.01472 5.95718 7.03623 5.82176 7.03864 5.6844C7.0393 5.64692 7.02501 5.56109 7.06256 5.53292C7.07941 5.52028 7.08186 5.57084 7.08648 5.59139C7.11293 5.70893 7.13265 5.82879 7.15292 5.94751C7.21758 6.32622 7.26422 6.70966 7.33896 7.08631C7.4326 7.55828 7.53058 8.03552 7.56618 8.51613C7.57597 8.64822 7.61777 8.78175 7.65522 8.90813C7.66147 8.92922 7.67092 8.98623 7.68312 8.96792C7.69126 8.95572 7.68445 8.86543 7.68445 8.86295C7.68445 8.72564 7.68445 8.58832 7.68445 8.45101C7.68445 7.82807 7.73014 7.22171 7.77481 6.60129C7.78551 6.45269 7.78182 6.30093 7.78013 6.15215C7.776 5.78926 7.64161 5.4046 7.56353 5.05321C7.5115 4.8191 7.7335 5.50391 7.78145 5.73889C7.89822 6.31104 7.98654 6.87204 8.05519 7.45174C8.09638 7.79958 8.15131 8.14502 8.20535 8.49088C8.22725 8.63106 8.2987 8.7531 8.33557 8.88952C8.37608 9.0394 8.54967 9.20497 8.68904 9.26691C8.7772 9.30609 8.7608 8.99018 8.7608 8.95065C8.7608 8.57214 8.73907 8.22569 8.67841 7.85304C8.58415 7.274 8.43884 6.70526 8.31963 6.13089C8.27981 5.93906 8.25786 5.75328 8.22927 5.55949C8.21463 5.46028 8.11568 5.23353 8.26913 5.38409C8.78627 5.89147 9.42478 6.06711 10.1348 6.06711C10.3815 6.06711 10.6282 6.06711 10.875 6.06711C10.9224 6.06711 11.0507 6.03888 11.0171 6.07242C10.933 6.15661 10.7027 6.17795 10.5946 6.20929C10.1908 6.32631 9.89275 6.56889 9.52487 6.75809C9.31493 6.86606 9.08998 6.96747 8.86444 7.03715C8.75183 7.07194 8.65706 7.10958 8.56014 7.17667C8.52015 7.20436 8.51857 7.19901 8.53888 7.14744C8.60301 6.98466 8.73202 6.84021 8.82724 6.69431C8.85814 6.64695 8.96276 6.56351 8.97474 6.5096C8.97872 6.4917 8.99972 6.42098 8.99998 6.42854C9.01669 6.91301 8.99998 7.39998 8.99998 7.88493" stroke="#F2C94C" stroke-linecap="round" stroke-linejoin="round"/>
</svg>
